<mxfile host="app.diagrams.net" modified="2024-05-25T07:24:21.064Z" agent="Mozilla/5.0 (Macintosh; Intel Mac OS X 10_15_7) AppleWebKit/537.36 (KHTML, like Gecko) Chrome/125.0.0.0 Safari/537.36" etag="SlEa_BWgSdsWzMTcA-vd" version="24.4.8" type="device">
  <diagram name="Page-1" id="_Cb3Hg22BL7B_E9PLBaY">
    <mxGraphModel dx="2440" dy="1025" grid="1" gridSize="10" guides="1" tooltips="1" connect="1" arrows="1" fold="1" page="1" pageScale="1" pageWidth="850" pageHeight="1100" math="0" shadow="0">
      <root>
        <mxCell id="0" />
        <mxCell id="1" parent="0" />
        <mxCell id="OTRd3QRNj_vxXyNohJPz-22" value="" style="group;fontSize=14;fontStyle=0;" parent="1" vertex="1" connectable="0">
          <mxGeometry x="670" y="620" width="140" height="140" as="geometry" />
        </mxCell>
        <mxCell id="OTRd3QRNj_vxXyNohJPz-18" value="" style="shape=image;verticalLabelPosition=bottom;labelBackgroundColor=default;verticalAlign=top;aspect=fixed;imageAspect=0;image=https://www.svgrepo.com/show/493719/react-javascript-js-framework-facebook.svg;fontSize=14;fontStyle=0;" parent="OTRd3QRNj_vxXyNohJPz-22" vertex="1">
          <mxGeometry x="35" y="10" width="70" height="70" as="geometry" />
        </mxCell>
        <mxCell id="OTRd3QRNj_vxXyNohJPz-21" value="Host computer" style="shape=image;verticalLabelPosition=bottom;labelBackgroundColor=default;verticalAlign=top;aspect=fixed;imageAspect=0;image=https://www.svgrepo.com/show/522096/desktop.svg;fontSize=14;fontStyle=0;" parent="OTRd3QRNj_vxXyNohJPz-22" vertex="1">
          <mxGeometry width="140" height="140" as="geometry" />
        </mxCell>
        <mxCell id="OTRd3QRNj_vxXyNohJPz-25" value="&#xa;" style="group;fontSize=14;fontStyle=0;strokeWidth=2;" parent="1" vertex="1" connectable="0">
          <mxGeometry x="180" y="620" width="140" height="140" as="geometry" />
        </mxCell>
        <mxCell id="OTRd3QRNj_vxXyNohJPz-26" value="" style="shape=image;verticalLabelPosition=bottom;labelBackgroundColor=default;verticalAlign=top;aspect=fixed;imageAspect=0;image=https://www.svgrepo.com/show/493719/react-javascript-js-framework-facebook.svg;fontSize=14;fontStyle=0;" parent="OTRd3QRNj_vxXyNohJPz-25" vertex="1">
          <mxGeometry x="35" y="10" width="70" height="70" as="geometry" />
        </mxCell>
        <mxCell id="OTRd3QRNj_vxXyNohJPz-27" value="Remote computer" style="shape=image;verticalLabelPosition=bottom;labelBackgroundColor=default;verticalAlign=top;aspect=fixed;imageAspect=0;image=https://www.svgrepo.com/show/522096/desktop.svg;fontSize=14;fontStyle=0;" parent="OTRd3QRNj_vxXyNohJPz-25" vertex="1">
          <mxGeometry width="140" height="140" as="geometry" />
        </mxCell>
        <mxCell id="b0f2NjakrzlaKpqATrwl-31" value="" style="endArrow=classic;html=1;rounded=0;exitX=0.422;exitY=1.008;exitDx=0;exitDy=0;exitPerimeter=0;strokeWidth=2;" edge="1" parent="OTRd3QRNj_vxXyNohJPz-25" source="b0f2NjakrzlaKpqATrwl-1">
          <mxGeometry width="50" height="50" relative="1" as="geometry">
            <mxPoint x="80" y="50" as="sourcePoint" />
            <mxPoint x="130" as="targetPoint" />
          </mxGeometry>
        </mxCell>
        <mxCell id="OTRd3QRNj_vxXyNohJPz-33" style="edgeStyle=orthogonalEdgeStyle;rounded=0;orthogonalLoop=1;jettySize=auto;html=1;fontSize=14;fontStyle=0;" parent="1" source="OTRd3QRNj_vxXyNohJPz-28" target="OTRd3QRNj_vxXyNohJPz-27" edge="1">
          <mxGeometry relative="1" as="geometry" />
        </mxCell>
        <mxCell id="OTRd3QRNj_vxXyNohJPz-28" value="STUN servers" style="shape=image;verticalLabelPosition=bottom;labelBackgroundColor=default;verticalAlign=top;aspect=fixed;imageAspect=0;image=https://www.svgrepo.com/show/527432/server-minimalistic.svg;fontSize=14;fontStyle=0;" parent="1" vertex="1">
          <mxGeometry x="-130" y="640" width="100" height="100" as="geometry" />
        </mxCell>
        <mxCell id="OTRd3QRNj_vxXyNohJPz-29" value="Context Bridge" style="endArrow=classic;startArrow=classic;html=1;rounded=0;exitX=0.5;exitY=0;exitDx=0;exitDy=0;fontSize=14;fontStyle=0;strokeWidth=2;" parent="1" edge="1">
          <mxGeometry width="50" height="50" relative="1" as="geometry">
            <mxPoint x="740" y="910" as="sourcePoint" />
            <mxPoint x="740" y="790" as="targetPoint" />
          </mxGeometry>
        </mxCell>
        <mxCell id="OTRd3QRNj_vxXyNohJPz-36" style="edgeStyle=orthogonalEdgeStyle;rounded=0;orthogonalLoop=1;jettySize=auto;html=1;fontSize=14;fontStyle=0;" parent="1" source="OTRd3QRNj_vxXyNohJPz-30" edge="1">
          <mxGeometry relative="1" as="geometry">
            <mxPoint x="810" y="680" as="targetPoint" />
          </mxGeometry>
        </mxCell>
        <mxCell id="OTRd3QRNj_vxXyNohJPz-30" value="STUN servers" style="shape=image;verticalLabelPosition=bottom;labelBackgroundColor=default;verticalAlign=top;aspect=fixed;imageAspect=0;image=https://www.svgrepo.com/show/527432/server-minimalistic.svg;fontStyle=0;fontSize=14;" parent="1" vertex="1">
          <mxGeometry x="1030" y="630" width="100" height="100" as="geometry" />
        </mxCell>
        <mxCell id="OTRd3QRNj_vxXyNohJPz-34" value="Public IP&lt;div&gt;and&lt;/div&gt;&lt;div&gt;ICE Candidates&lt;/div&gt;" style="edgeStyle=orthogonalEdgeStyle;rounded=0;orthogonalLoop=1;jettySize=auto;html=1;entryX=1;entryY=0.5;entryDx=0;entryDy=0;fontSize=14;fontStyle=0;strokeWidth=2;" parent="1" source="OTRd3QRNj_vxXyNohJPz-27" target="OTRd3QRNj_vxXyNohJPz-28" edge="1">
          <mxGeometry relative="1" as="geometry" />
        </mxCell>
        <mxCell id="OTRd3QRNj_vxXyNohJPz-35" value="Public IP&lt;div&gt;and&lt;/div&gt;&lt;div&gt;ICE Candidates&lt;/div&gt;" style="edgeStyle=orthogonalEdgeStyle;rounded=0;orthogonalLoop=1;jettySize=auto;html=1;fontSize=14;fontStyle=0;spacing=2;verticalAlign=middle;strokeWidth=2;spacingTop=0;" parent="1" source="OTRd3QRNj_vxXyNohJPz-21" target="OTRd3QRNj_vxXyNohJPz-30" edge="1">
          <mxGeometry relative="1" as="geometry">
            <Array as="points">
              <mxPoint x="850" y="680" />
              <mxPoint x="850" y="680" />
            </Array>
          </mxGeometry>
        </mxCell>
        <mxCell id="b0f2NjakrzlaKpqATrwl-1" value="Signaling server" style="shape=image;verticalLabelPosition=top;labelBackgroundColor=default;verticalAlign=bottom;aspect=fixed;imageAspect=0;image=https://www.svgrepo.com/show/527432/server-minimalistic.svg;fontSize=14;fontStyle=0;labelPosition=center;align=center;" vertex="1" parent="1">
          <mxGeometry x="435" y="230" width="100" height="100" as="geometry" />
        </mxCell>
        <mxCell id="b0f2NjakrzlaKpqATrwl-12" value="Electron" style="shape=image;imageAspect=0;aspect=fixed;verticalLabelPosition=bottom;verticalAlign=top;image=https://cdn.jsdelivr.net/gh/devicons/devicon@latest/icons/electron/electron-original.svg;fontSize=14;" vertex="1" parent="1">
          <mxGeometry x="695" y="910" width="90" height="90" as="geometry" />
        </mxCell>
        <mxCell id="b0f2NjakrzlaKpqATrwl-16" value="RTC Offer + ICE Candidates" style="text;html=1;align=center;verticalAlign=middle;whiteSpace=wrap;rounded=0;fontSize=14;rotation=-60;" vertex="1" parent="1">
          <mxGeometry x="230" y="450" width="230" height="20" as="geometry" />
        </mxCell>
        <mxCell id="b0f2NjakrzlaKpqATrwl-18" value="RTC Offer + ICE Candidates" style="text;html=1;align=center;verticalAlign=middle;whiteSpace=wrap;rounded=0;fontSize=14;rotation=60;" vertex="1" parent="1">
          <mxGeometry x="545" y="470" width="230" height="20" as="geometry" />
        </mxCell>
        <mxCell id="b0f2NjakrzlaKpqATrwl-22" value="Peer to peer connection" style="shape=flexArrow;endArrow=classic;startArrow=classic;html=1;rounded=0;fontSize=14;fontStyle=0" edge="1" parent="1">
          <mxGeometry x="-0.0303" y="19" width="100" height="100" relative="1" as="geometry">
            <mxPoint x="330" y="679.29" as="sourcePoint" />
            <mxPoint x="660" y="679.29" as="targetPoint" />
            <mxPoint as="offset" />
          </mxGeometry>
        </mxCell>
        <mxCell id="b0f2NjakrzlaKpqATrwl-23" value="&lt;font style=&quot;font-size: 14px;&quot;&gt;Track mouse movements&lt;/font&gt;&lt;div&gt;&lt;font style=&quot;font-size: 14px;&quot;&gt;and actions (clicks and drags)&lt;/font&gt;&lt;/div&gt;" style="endArrow=classic;html=1;rounded=0;strokeWidth=2;" edge="1" parent="1">
          <mxGeometry width="50" height="50" relative="1" as="geometry">
            <mxPoint x="280" y="790" as="sourcePoint" />
            <mxPoint x="410" y="920" as="targetPoint" />
          </mxGeometry>
        </mxCell>
        <mxCell id="b0f2NjakrzlaKpqATrwl-24" value="Mirror mouse&lt;div&gt;movement (RobotJS)&lt;/div&gt;" style="endArrow=classic;html=1;rounded=0;strokeWidth=2;fontSize=14;" edge="1" parent="1">
          <mxGeometry width="50" height="50" relative="1" as="geometry">
            <mxPoint x="560" y="910" as="sourcePoint" />
            <mxPoint x="680" y="750" as="targetPoint" />
          </mxGeometry>
        </mxCell>
        <mxCell id="b0f2NjakrzlaKpqATrwl-25" value="Mirroring logic" style="rounded=0;whiteSpace=wrap;html=1;" vertex="1" parent="1">
          <mxGeometry x="410" y="910" width="150" height="80" as="geometry" />
        </mxCell>
        <mxCell id="b0f2NjakrzlaKpqATrwl-27" value="" style="endArrow=classic;html=1;rounded=0;strokeWidth=2;entryX=0.018;entryY=0.95;entryDx=0;entryDy=0;entryPerimeter=0;" edge="1" parent="1" target="b0f2NjakrzlaKpqATrwl-1">
          <mxGeometry width="50" height="50" relative="1" as="geometry">
            <mxPoint x="270" y="610" as="sourcePoint" />
            <mxPoint x="430" y="320" as="targetPoint" />
          </mxGeometry>
        </mxCell>
        <mxCell id="b0f2NjakrzlaKpqATrwl-28" value="" style="endArrow=classic;html=1;rounded=0;strokeWidth=2;entryX=0.336;entryY=-0.025;entryDx=0;entryDy=0;entryPerimeter=0;" edge="1" parent="1" target="OTRd3QRNj_vxXyNohJPz-21">
          <mxGeometry width="50" height="50" relative="1" as="geometry">
            <mxPoint x="540" y="310" as="sourcePoint" />
            <mxPoint x="720" y="610" as="targetPoint" />
          </mxGeometry>
        </mxCell>
        <mxCell id="b0f2NjakrzlaKpqATrwl-30" value="" style="endArrow=classic;html=1;rounded=0;entryX=0.75;entryY=1;entryDx=0;entryDy=0;exitX=0;exitY=0;exitDx=0;exitDy=0;strokeWidth=2;" edge="1" parent="1" source="OTRd3QRNj_vxXyNohJPz-21" target="b0f2NjakrzlaKpqATrwl-1">
          <mxGeometry width="50" height="50" relative="1" as="geometry">
            <mxPoint x="470" y="380" as="sourcePoint" />
            <mxPoint x="520" y="330" as="targetPoint" />
          </mxGeometry>
        </mxCell>
        <mxCell id="b0f2NjakrzlaKpqATrwl-34" value="RTC Answer + ICE Candidates" style="text;html=1;align=center;verticalAlign=middle;whiteSpace=wrap;rounded=0;fontSize=14;rotation=-60;" vertex="1" parent="1">
          <mxGeometry x="260" y="470" width="230" height="20" as="geometry" />
        </mxCell>
        <mxCell id="b0f2NjakrzlaKpqATrwl-35" value="RTC Answer + ICE Candidates" style="text;html=1;align=center;verticalAlign=middle;whiteSpace=wrap;rounded=0;fontSize=14;rotation=60;" vertex="1" parent="1">
          <mxGeometry x="500" y="480" width="230" height="20" as="geometry" />
        </mxCell>
      </root>
    </mxGraphModel>
  </diagram>
</mxfile>
